<svg version="1.0" xmlns="http://www.w3.org/2000/svg" viewBox="0 0 1184 111"><g fill="#FFF" stroke-width="0"><path d="M0 55.5V111h1184V0H0v55.5zm24-36.4c3.5.5 7.1 1.6 7.9 2.2 1.4 1.2 10.2 4 17.6 5.7 8 1.8 19.7 1.2 28.1-1.6 4.4-1.4 8.9-3.2 10.1-4 3.2-2 5.5-1.8 9.7 1.1 4.8 3.3 12.5 3.5 14.4.5 1.9-3.1 9.5-2.8 12.7.4 1.5 1.5 4.2 2.7 7 3.2 5.3.7 17.5-.4 17.5-1.6 0-.5 2.3-2.1 5.1-3.5l5.2-2.6 4.8 4.1c2.8 2.4 5.8 4 7.3 4 1.4 0 4.3.9 6.4 2 6.3 3.3 15.4 2.2 24.7-2.9l7.3-4 9.3 1.5c9.7 1.6 17.6 1.3 21-.9 1.6-1 3.1-.6 9.2 2.5 16.2 8.2 22.1 8.1 28.9-.8 2.1-2.7 4.2-5 4.8-5.2 1.1-.4 8.2 2 14.6 4.9 2.2 1.1 4.6 1.9 5.3 1.9.6 0 2.8.8 4.9 1.9 5.1 2.5 15.4 4.3 19.8 3.5 2-.4 5.7-1.8 8.2-3.2 3.9-2.2 5.7-2.5 14.1-2.6 5.3 0 11.9.5 14.6 1.2 5.7 1.3 12.1 3.5 13.1 4.5 1.2 1.2 19.9.8 21.1-.4.6-.6 2.2-1.7 3.5-2.3 1.2-.6 2.7-2 3.2-3.1s2.1-3 3.6-4.2c2.5-2.1 2.8-2.1 7.4-.6 4.1 1.4 5.7 1.4 11.6.3 6.1-1.2 7-1.1 8.5.4.9.9 2.1 1.6 2.6 1.6s1.4 1.1 2 2.4c.6 1.3 3.5 3.5 6.8 5.1 4.8 2.3 6.4 2.6 10.5 2 2.7-.4 6.8-1.9 9.3-3.4 2.4-1.4 5.4-3.2 6.6-3.8 3-1.7 8.1-1.6 15.2.3 7.1 1.9 12.3 1.5 18.7-1.5 5.8-2.6 8.4-2.7 9.8-.1 1.3 2.4 10 7 13.4 7 1.5 0 3.4-1.2 4.9-3 2.3-2.7 2.9-2.9 5.3-2 1.5.6 3.4 1.9 4.1 3 3.3 4.7 29.1 5.4 32.8.8 1-1.2 3.3-2.7 8.3-5.4 2.4-1.2 9.6-.1 11.7 1.7.5.5 2.3.9 4.1.9 1.8 0 6.3 1.4 10.1 3.1 5.5 2.5 8.5 3.2 16 3.6 11.4.7 13.7-.2 20.3-7.4l4.9-5.4 3.1 1.6c2.3 1.2 5.3 1.6 11 1.4 7-.3 8.1-.1 11.1 2.3 1.9 1.4 4.5 2.9 5.9 3.3 1.4.4 3.2 1.4 4.1 2.2 2.6 2.3 18.8 3 24.1 1 2.4-.8 6.3-1.8 8.8-2.1 2.4-.4 5.9-1.6 7.8-2.8 2.9-1.8 4.4-2 11-1.5 4.3.3 10.2 1.4 13.2 2.5 3.2 1.2 10.1 2.5 16.5 3 10.7.9 11 .9 17.6-1.9 3.6-1.6 8.5-3.1 10.8-3.5 2.2-.4 4.1-1 4.1-1.5 0-1.5 6-1 6.6.5.3.8-.2 2.6-1.1 4l-1.7 2.6h9.9c6.5 0 12.6-.7 17.4-1.9 4.1-1 11.2-2.2 15.9-2.6 4.7-.3 12.8-1.3 18-2 5.2-.8 9.8-1.1 10.3-.6.4.4.2 2-.4 3.5-1.8 3.9-.1 5 8.9 5.4 5.9.3 9.2-.1 13.9-1.7 3.4-1.2 7.8-2.1 9.8-2.1 1.9 0 3.5-.4 3.5-.8 0-.5 2.1-1.3 4.8-2 14.6-3.4 20.1-4.4 21.6-3.9.9.4 2.5 2.7 3.6 5.1 2.2 5.3 3.8 5.9 13.7 5.4 8.1-.5 15-2.2 21.9-5.4 2.8-1.3 5.5-2.4 6.1-2.4.5 0 2.2 1.4 3.9 3.1 5.2 5.5 7.6 6.2 18.8 5.5 15.3-.9 20.5-1.9 28.1-5.5l6.9-3.3 7.2 3.7c8.4 4.4 16.5 5.5 32.1 4.5 10.7-.7 12.7-2.1 11.8-7.8-.5-2.4-.2-3.4 1.1-3.9 2.3-.8 11 2.3 16.1 5.9 8.3 5.7 12.7 7.1 20.7 6.3 7.3-.7 20.5-4.6 24-7.1 1.1-.8 2.7-1.4 3.6-1.4.8 0 3.2-1.4 5.3-3.1 7.2-5.9 9.8-1 5.3 10.1-1.4 3.4-2.3 6.6-2 7.1.3.5 2.5 2 5 3.5 4.1 2.4 4.4 2.9 4.4 6.8 0 3.2-.7 4.9-3 7.4-2.8 3.1-3 3.8-3 11.5.1 6.6.5 9.1 2.5 13.2 2.5 5 3.4 13.8 1.7 14.9-.5.3-2.5-.6-4.5-1.9-2-1.4-4.1-2.5-4.7-2.5-.7 0-2.7-.7-4.5-1.6-2.7-1.2-6-1.5-15.2-1.2-10 .2-12.5.6-16.3 2.6-2.4 1.3-4.9 3-5.5 3.8-.9 1.3-2.9 1.4-14.5.3-8.6-.7-14.1-1.6-15.1-2.5-.8-.8-2.7-1.4-4-1.4-1.4 0-3.4-.7-4.5-1.4-2.8-2-8.2-2.1-23.5-.8-12.9 1.2-14.1 1.4-19.6 3.8-3.9 1.8-13.9 3.2-19.4 2.7-4.9-.4-5.7-.9-4.1-2.5.7-.7 1.2-2 1.2-2.9 0-1.5-1.8-1.8-14.5-2.4-16.5-.8-18.8-.5-28.8 3.7-9.3 4-21.5 4.5-28.7 1.1-2.5-1.1-6.1-2.4-8-2.8-1.9-.4-4.1-1.2-4.8-1.8-1.6-1.3-29.1-.4-31.7 1.1-1.1.6-5.6 1.8-9.9 2.7-4.4.8-8.5 2-9.2 2.6-1.4 1.1-21.1 2.8-34 2.9h-8l-1-5.3-.9-5.2-14 .3c-7.6.2-14.7.8-15.7 1.3s-4.3 1.4-7.3 2c-3 .5-6.7 1.6-8.2 2.4-1.6.8-3.8 1.5-5 1.5-1.2 0-2.4.4-2.7.8-.3.5-6.3.8-13.3.7l-12.8-.3-2.8-4.1-2.8-4.1-21.7.6c-18.5.5-22.3.9-25.5 2.5-2.1 1-4.4 1.9-5.2 1.9-.7 0-1.6.8-1.9 1.8-1.1 3.2-3.8 3.7-18.8 3.4l-14.8-.3-1.9-4.4c-1-2.4-2.8-4.6-3.9-4.9-1-.4-4.6 0-7.8.9-3.2.8-6.8 1.5-8.1 1.5-1.2 0-2.5.4-2.8 1-.8 1.2-24.2 1.4-24.9.1-.3-.4-2.9-1.1-5.7-1.5-2.9-.4-6.8-1.4-8.8-2.2-4.7-2-33.9-3.6-44.7-2.3-16.3 1.8-22.8 3.3-26.5 6.2-2 1.5-4 2.7-4.4 2.7-.5 0-1.6.6-2.4 1.4-1.8 1.6-10 2.4-11.9 1.2-.7-.4-1.2-1.4-1.2-2.2 0-.8-.9-1.4-1.9-1.4-1.1 0-2.6-.7-3.5-1.5-.8-.8-1.9-1.5-2.4-1.5-.6 0-1.2-.6-1.5-1.3-1.3-3.3-31.9-4.9-34.9-1.9-.7.7-1.9 1.2-2.8 1.2-.8 0-5.1 1.8-9.4 4-8.9 4.5-12.7 4.9-18.5 1.9-3-1.5-4.9-1.8-7.6-1.3-3.8.7-4.3.5-15.5-5.1-5.6-2.8-7.6-3.3-14.7-3.4-4.5-.1-9 .2-10 .8-1 .6-3.8 1.5-6.3 2-8.1 1.8-13.7 3.6-15.3 4.9-3.2 2.6-8.4 2.6-12.5 0-2-1.4-5.5-2.8-7.7-3.2-2.2-.4-4.5-1.2-5.2-1.8-1.9-1.5-13.5-.1-22.1 2.8-5.4 1.8-7.7 1.8-11-.1-2.8-1.5-11.7-3.3-21-4.2-5.2-.5-5.2-.5-6.7 3.1-1.3 3.1-2 3.6-5 3.6-1.8 0-3.7-.5-4-1-.3-.6-1.6-1-2.8-1-1.3 0-3.3-.7-4.5-1.6-1.6-1.1-5.1-1.6-13-1.7-9.6-.2-11.1 0-14.2 2.1-2.3 1.4-5 2.2-8.1 2.2-6.6 0-16.1-1.9-18.1-3.7-1.9-1.7-14.9-3.6-19.4-2.8-1.7.3-5 1.5-7.4 2.6-2.4 1.2-5 2.2-5.7 2.3-.7.1-3.1 1.4-5.4 2.9-6.4 4.2-9.1 3.7-13.9-2.8-4.5-6.1-6.1-6.6-11.3-3.5-1.9 1.2-4.5 2.3-5.7 2.5-3.8.7-9.4 2.7-10.5 3.6-1.8 1.7-7.6.9-11.3-1.6-2-1.4-4.2-2.5-4.9-2.5-.6 0-3.3-1.1-5.9-2.5-5.4-2.9-14.2-3.4-19.6-1.1C76.7 93.5 75 94 75 91.2c0-1.2-1.1-3.2-2.4-4.6-1.8-2.1-3.3-2.6-6.8-2.6-2.7 0-5 .6-5.7 1.4-.7.8-3.1 1.8-5.4 2.2-2.3.3-5.8 1.7-7.7 3-4.3 3-5.6 3-7.5 0-2.4-3.7-8.9-5-21.5-4.3-9.3.5-10.9.3-11.4-1-1.2-3 .7-8.8 4-12.6 1.9-2 3.4-4.1 3.4-4.7 0-.5.9-1.8 2-2.8 2-1.9 2-1.9-3-7.1-2.7-2.9-5-5.8-5-6.5 0-.6 1.5-3.2 3.2-5.6 4.4-5.9 4.3-11.9-.1-20.3-1.7-3.2-2.9-6.3-2.6-6.8.8-1.2 7.5-1.1 15.5.2z"/><path d="M129.2 40.1c-5.4 1-10 4.3-10.9 7.7-1.3 4.5-.7 18.5.8 21.6 1.7 3.4 8.4 6.5 14.4 6.5 4.1.1 13.8-2.1 13.4-2.9-.2-.3.5-1.5 1.5-2.7 4.3-5 5.1-11.9 2.5-21.5-1.8-6.8-11.6-10.8-21.7-8.7zm11.1 8c1.2 2.2 1.7 5.3 1.7 10.8 0 8.6-1 10.4-6.5 11.5-2.3.5-3.7.1-5.8-1.7-2.7-2.1-2.9-2.8-2.9-9.4 0-11.7 1.4-14.3 7.6-14.3 3.5 0 4.3.4 5.9 3.1zm-58.6-6.4c-.4.3-.7 7.5-.7 16 0 13.9.2 15.3 1.8 15.3.9 0 2.7.3 4 .6 2.1.6 2.2.4 2.2-7V59h8.4c8.3 0 8.3 0 7.9-2.5-.5-2.3-.9-2.4-8.2-2.7l-7.6-.3v-7.8l10.3.2 10.2.2V41H96.2c-7.6 0-14.2.3-14.5.7zM160.9 56c-.1 8.2-.2 15.5-.3 16.2-.1 1.3 5.9 2.9 7.9 2.1.9-.3 1.1-2.3.8-6.6-.4-5-.2-6.5 1.1-7.6 2-1.7 6.6-.6 6.6 1.5 0 .8.5 2 1.1 2.7.6.7 2 3.2 3.2 5.7 2.1 4.3 2.4 4.5 7 4.8 2.6.2 4.7.2 4.7 0 0-1.1-4.3-8.5-6.1-10.6-2.8-3.2-2.1-5.5 1.9-6.3 4.3-.9 4.3-1 5-6.4.4-4 .2-4.8-1.9-6.3-5.4-3.8-7.2-4.2-19-4.2H161l-.1 15zm21.4-8.8c5.8 2.8 1.8 8.8-5.8 8.8-5.1 0-6.3-.8-6.5-4.5-.4-5.4-.3-5.5 4.8-5.5 2.6 0 6 .6 7.5 1.2zm31.5-5.5c-1.6.2-2.8.8-2.8 1.2 0 .5-.8 1.1-1.8 1.4-2.1.5-3.4 5.1-2.5 8.5.7 3 5.8 5.8 11.5 6.5 5.3.7 11.4 4.2 12.2 7 1.6 6.1-13.5 8.1-16.3 2.1-.9-2.1-1.7-2.4-6.1-2.4h-5l1.9 3.9c2.7 5.2 9.5 7.5 20.6 6.9 7.4-.3 7.8-.5 11.1-4.1 4-4.3 4.3-7.7 1.2-12.3-1.7-2.5-3.2-3.4-6.3-3.8-4.4-.7-11.1-2.8-12.1-3.9-.4-.4-1.6-.7-2.6-.7-1.2 0-1.8-.7-1.8-2.4 0-2.7 1.6-3.6 6.5-3.6 4.4 0 6.5.9 6.5 2.7 0 1.3.8 1.4 4.2.9 2.3-.4 4.4-.8 4.5-1 .7-.7-1-3.6-2-3.6-.6 0-1.9-.7-2.8-1.6-1.9-1.7-12.5-2.7-18.1-1.7zM251.1 59l-.1 17 12.7.1c7.1 0 14.1.2 15.6.4 2.6.3 2.8.1 2.5-2.7l-.3-3.1-10.2.2c-11.3.2-11.3.2-11-6.9l.2-3.5 7.8-.3c5.4-.2 7.7-.7 7.7-1.5 0-2.4-2.1-3.4-6.3-3-2.4.2-5.6-.1-7.1-.7-2.3-.8-2.7-1.5-2.4-4.2l.3-3.3 9.8-.3c9.6-.3 9.7-.3 9.7-2.7V42h-28.8l-.1 17zm65.9-8.2c0 4.4-.3 12-.6 17l-.7 9.2h9.3l.2-6.3c.1-3.4.1-8.6 0-11.5-.2-6.4 2-7.2 4.6-1.5 1 2.1 2.9 5.6 4.2 7.8 1.4 2.2 3.1 4.9 3.8 6 .7 1.1 1.5 2.8 1.8 3.7.5 1.3 1.7 1.8 4.9 1.8h4.2l.7-5.3c.3-2.8.6-10.4.6-16.7V43.5l-4-.1-4-.1v7.9c0 6.1-.3 8-1.5 8.4-1.9.8-4.5-1.3-4.5-3.6 0-.9-1.6-3.7-3.5-6.1-1.9-2.4-3.5-5-3.5-5.7 0-.8-1.9-1.2-6-1.2h-6v7.8zm52.8-6.6c-1.6.5-2.8 1.5-2.8 2.1 0 .6-.9 2-2 3.2-1.6 1.7-2 3.6-2.1 9.6-.1 8.8 1 12 5.3 15.9 3.9 3.6 7.9 4.5 16.1 3.6 8.1-.8 12.1-4.4 13.8-12.4 2-10-.5-18.7-6.2-21.6-3.7-1.8-17.6-2.1-22.1-.4zm15.6 4.9c2.8 1.3 3.6 4.3 3.6 13.3 0 6.6-.4 7.5-3.7 9.3-3.6 2-7.7 1.6-10.2-1.1-2.4-2.6-3.9-11.3-2.7-16 1.4-5.8 7.1-8.2 13-5.5zm24.6 1.2c0 5.1.4 7.7 1.3 8 .9.4.9.7-.1 1.5-.9.6-1.2 3.2-1 8.8l.3 7.9 4.3.3 4.4.3-.3-10.6c-.3-10.4.5-13.6 3-12.1.6.4 1.1 1.6 1.1 2.7 0 1.2 1.3 3.9 2.9 6.2 1.5 2.3 4 6.3 5.4 8.8 2.4 4.2 3.1 4.7 6.8 5.1 2.2.2 4.2.1 4.4-.2.2-.3.5-7.8.6-16.5l.2-16-4.1-.3-4.1-.3-.3 8.7c-.3 10.2-1.7 11.7-4.7 4.9-1.1-2.6-3.2-6-4.6-7.7-1.4-1.6-2.5-3.6-2.5-4.4 0-1-1.2-1.4-4.2-1.4-2.4 0-5.3-.3-6.5-.6-2.2-.6-2.3-.4-2.3 6.9zm281-5.7c-5.4 2.3-7 4.3-7 8.4 0 4.8 1.8 6.3 10.8 8.6 11.1 2.8 16.1 6.5 13.3 9.8-1.5 1.8-7.9 2.8-11.6 1.8-1.8-.5-3.5-1.9-4.3-3.5-1.2-2.5-1.6-2.6-6-2-2.6.3-4.8.7-4.9.7-.1.1.5 1.8 1.5 3.8 1.5 3.2 2.5 3.8 8.7 5.7 7.6 2.3 13.5 2.7 16.3 1.1.9-.5 2.9-1.4 4.4-2 3.6-1.2 6.1-6.1 5.2-10.5-.8-4.3-6.1-8-12.7-9-9.9-1.4-14.3-4.9-10-8 2.2-1.7 8.2-.8 10.8 1.5 1.6 1.4 3 1.6 6.4 1.1l4.5-.6-3.2-2.9c-5.4-5.2-15.4-7-22.2-4zm78.7-.9c-.1.1-.1 7.8.1 17.2l.3 17.1h8.4l-.3-11c-.4-10.2-.3-11 1.4-11 1.2 0 2.5 1.4 3.6 3.8 2.5 5.2 6.7 12.5 7.7 13.2.4.3 1.3 1.5 2 2.8 1 1.9 1.9 2.3 5.2 2 2.2-.2 3.9-.6 3.9-1.1V44h-7.9l-.3 8.7c-.2 4.9-.7 8.8-1.2 8.8-1 0-7.9-10.4-9.8-14.7-1.1-2.4-1.8-2.7-7.1-3-3.2-.2-5.9-.2-6-.1zM870.2 45c-2.3 1.1-4.5 2.7-4.9 3.7-.3 1-1.3 2.6-2.1 3.5-1.1 1.3-1.4 3.5-1 9 .6 8.5 2.5 12.8 7 15.6 7.5 4.6 23.7 1.8 26.6-4.6 1.6-3.8 1.8-18.3.2-22.1-2.6-6.5-16.5-9.2-25.8-5.1zm13.9 5c.9 0 2 .7 2.3 1.6 1.1 2.9.7 18.9-.6 20.2-.7.7-3.3 1.2-5.9 1.2-4.3 0-4.8-.2-6.3-3.4-1.8-3.8-2.1-13.7-.6-16.7 1.3-2.4 7.1-5 8.5-3.8.5.5 1.7.9 2.6.9zm54.4-5.5c-2.2.8-4.1 1.5-4.2 1.5 0 0-1 1.6-2.2 3.6-2.9 4.8-3 16.8-.2 22.3 1.7 3.2 2.7 4 6.8 5 2.6.7 6 1.5 7.4 2 3.8 1.2 15.7-1.8 16.5-4.1.3-1 .9-1.8 1.4-1.8.4 0 1.1-1.2 1.4-2.7.9-3.2-.5-4.3-5.6-4.3-3.2 0-3.7.3-4.3 3-.4 1.7-1.7 3.8-3 4.6-2 1.3-2.9 1.4-5.9.3-4.8-1.7-5.7-4.1-5.4-13.9.3-8.3.4-8.5 3.6-10.6 2.8-1.9 3.7-2.1 6.2-1.1 1.7.6 3 1.8 3 2.7 0 .8.7 2.3 1.5 3.3 1.1 1.6 2.1 1.8 5.4 1.2 2.3-.4 4.1-1.1 4.1-1.5 0-1.7-2-6.2-3.4-7.5-3.3-3.3-16.3-4.4-23.1-2zm-457.7 0c-.5.5-.8 1.9-.8 3.2 0 2.1.4 2.3 5 2.3h5v26.9l3.4.7c1.9.3 4 .4 4.6.2.8-.2 1.3-4.9 1.5-13.3.3-7.2.5-13.3.5-13.8 0-.4 2.4-.7 5.3-.7 4.8 0 5.2-.2 5.3-2.5.2-2.4-.1-2.5-5-2.5-2.8 0-9.4-.3-14.6-.6-5.2-.4-9.8-.3-10.2.1zm41.4.2-4.3.4.6 12.6c.6 16.1 1.9 18.6 10.3 20.4 9.5 2.1 16.5.7 19.9-3.9 1.8-2.4 2.1-4.7 2.5-16.5l.5-13.7H542v12.4c0 11-.2 12.6-2.1 15-2.5 3.2-6.8 3.5-9.5.5-1.6-1.8-2-4-2.3-15-.1-7.1-.6-12.8-1-12.7-.3.1-2.5.3-4.9.5zM560 47v3.3l4.5-.5c2.6-.3 4.8-.1 5.2.5.3.5.5 7 .4 14.4l-.2 13.3h9.1l.2-7.8c.1-4.2.2-10.4.3-13.7l.1-6 5.2-.3c4.8-.3 5.2-.5 5.2-2.8s-.3-2.4-6.7-2.4c-3.8 0-10.5-.3-15-.7l-8.3-.6V47zm41.3-2.3c-2.7.4-3.3.9-3.3 2.9 0 2.3.3 2.4 4.2 2 6.5-.8 6.8-.2 6.8 15 0 7.3.3 13.5.8 13.8.4.2 2.3.1 4.1-.2l3.3-.7-.1-13.8L617 50h5c4.7 0 5-.2 5-2.5 0-2.4-.3-2.5-5.7-2.6-3.2 0-8.3-.2-11.3-.3-3-.2-7-.1-8.7.1zm135.1.2c-.2.2-.4 1.1-.4 1.8 0 .8-.9 3.4-2 5.8s-2.6 6.8-3.4 9.7c-.8 2.9-2.4 7.2-3.5 9.5-2.9 5.9-2.8 6.5 2.2 6.1 3.5-.2 4.3-.7 4.5-2.5.4-2.7 2-3.2 9.2-3 4.9.2 5.6.5 6.8 2.9 1.1 2.4 1.9 2.8 5.8 2.8 3.7 0 4.4-.3 4.4-1.9 0-1.1-.4-2.2-.9-2.6-.5-.3-1.7-2.7-2.7-5.3-1.6-4.6-5.2-13.4-7.9-19.8-1.3-2.9-1.8-3.2-6.5-3.5-2.9-.2-5.4-.2-5.6 0zm8.5 15.8c1.9 6.6 1.6 7.3-2.9 7.3-3.6 0-4-.3-4-2.4 0-1.4.5-2.8 1-3.1.6-.3 1-1.7 1-3.1 0-1.7.5-2.4 2-2.4 1.4 0 2.2 1.1 2.9 3.7zm73-16.2c-.2.2-.3 7.7-.2 16.7l.2 16.3 4.1.3 4.2.3-.2-11.3c-.2-13.9-.2-13.8.9-13.8.5 0 1.7 2.3 2.6 5.1 1 2.8 2.3 5.3 3 5.6.8.2 1.8 1.7 2.4 3.1 1.2 2.9 4.8 9.2 6.1 10.5.4.5 2.4.5 4.4.2l3.6-.7V44h-8.1l.2 8.7c.2 9.6-.9 11.5-3.7 6.2-1.3-2.5-5.1-8.4-8.8-13.6-.3-.4-10.4-1.2-10.7-.8zm160.6.7c-.3.8-.4 8.3-.3 16.8l.3 15.5 4.3.1 4.2.1V63h14v15h8.5l.3-16.5.4-16.5h-9.1l-.3 6.2-.3 6.1-6.5.1-6.5.1-.3-6.3c-.3-5.8-.5-6.2-2.7-6.2-1.3 0-3-.3-3.9-.6-.9-.3-1.8 0-2.1.8zm69.2-.6c-.3.4-6 .6-12.7.5-11.7-.1-12 0-12.2 2.2 0 1.2 0 2.9.1 3.7.1.8.2 7.2.2 14.2.1 10.3.4 12.8 1.6 13.2.8.3 2 .3 2.6-.1.6-.4 6.8-.7 13.7-.8 12.4 0 12.5 0 12.8-2.4.2-1.3 0-2.7-.5-3.1-.4-.5-4.8-.5-9.8-.1-4.9.4-9.6.6-10.2.3-.8-.2-1.3-2.2-1.3-4.8V63h7.9c7.8 0 7.8 0 7.4-2.5-.5-2.3-1-2.4-7.6-2.7l-7.2-.3-.6-3.8c-.3-2.1-.3-4 .1-4.2.4-.2 4.8-.5 9.8-.6 7.8-.1 9.1-.4 9.5-1.9.3-1.1-.2-2.1-1-2.4-1.8-.7-1.8-.7-2.6 0zM637 61.5V78h9V45h-9v16.5zm430.5 10.3c-.3.3-.5 1.8-.5 3.4 0 2.6.3 2.8 4.1 2.8s4-.2 3.7-2.7c-.2-2.2-1-2.9-3.5-3.4-1.8-.3-3.5-.4-3.8-.1zm18.7-.1c-1.9.4-2.3 1-2 3.6.3 2.8.7 3.2 3.3 3.2 2.7 0 3-.3 3-3.4 0-3.6-.6-4.1-4.3-3.4zM1099 75v4.1l3.8-.7c2-.4 3.8-.8 4-.9.1-.1-.1-1.6-.4-3.3-.6-2.8-1-3.2-4-3.2-3.3 0-3.4.1-3.4 4z"/></g><path d="M735.3 26.7c1.5.2 3.7.2 5 0 1.2-.2 0-.4-2.8-.4-2.7 0-3.8.2-2.2.4zm118 1c1.5.2 3.7.2 5 0 1.2-.2 0-.4-2.8-.4-2.7 0-3.8.2-2.2.4zm-580.5 14c6.8.4 7.2.5 7.2 2.8 0 1.3-.7 2.6-1.5 2.8-1.1.4-1 .4.2.3 1.3-.1 1.8-1 1.8-3.1v-3l-7.5-.1-7.5-.1 7.3.4zm161.2 10c-.3 5.1-.1 8.9.3 8.4.4-.4.7-4.6.5-9.2l-.3-8.4-.5 9.2zm359.4-7.4c-.3.8-.3 4.9-.1 9.3l.3 7.9.2-8.7.2-8.7 4.3-.4 4.2-.4-4.3-.1c-2.8-.1-4.4.3-4.8 1.1zm231.4.4c1.7.2 4.7.2 6.5 0 1.7-.2.3-.4-3.3-.4-3.6 0-5 .2-3.2.4zm10.9 5c1.8.2 5 .2 7 0 2.1-.2.7-.4-3.2-.4-3.8 0-5.5.2-3.8.4zm-58.3 13.8c0 6.6.1 9.2.3 5.7.2-3.4.2-8.8 0-12-.2-3.1-.3-.3-.3 6.3zM93.8 53.7c1.8.2 4.5.2 6 0s0-.4-3.3-.4-4.5.2-2.7.4zm542.5 6.8c0 4.4.2 6.1.4 3.7.2-2.3.2-5.9 0-8-.2-2-.4-.1-.4 4.3zM80.3 59c0 3 .2 4.3.4 2.7.2-1.5.2-3.9 0-5.5-.2-1.5-.4-.2-.4 2.8zm409 10.5c0 4.4.2 6.1.4 3.7.2-2.3.2-5.9 0-8-.2-2-.4-.1-.4 4.3zm280 .5c0 3 .2 4.3.4 2.7.2-1.5.2-3.9 0-5.5-.2-1.5-.4-.2-.4 2.8zm218 .5c0 3.3.2 4.5.4 2.7.2-1.8.2-4.5 0-6s-.4 0-.4 3.3zm-568.1 1.2c-.2 5-.3 5.2-3.4 5.6l-3.3.4 3.3.1c3.8.2 4.5-.9 3.9-6.9l-.4-4.4-.1 5.2zm24.1.8c0 3.3.2 4.5.4 2.7.2-1.8.2-4.5 0-6s-.4 0-.4 3.3zm-192.9-.3c.1 3.6.4 4.3 2.1 4.4 1.4.1 1.5 0 .3-.3-1.1-.3-1.8-1.7-2.1-4.4l-.4-3.9.1 4.2zm569.9 6.5c1.5.2 3.7.2 5 0 1.2-.2 0-.4-2.8-.4-2.7 0-3.8.2-2.2.4zm-442.5 1c1.8.2 4.5.2 6 0s0-.4-3.3-.4-4.5.2-2.7.4zm539 9c1.7.2 4.7.2 6.5 0 1.7-.2.3-.4-3.3-.4-3.6 0-5 .2-3.2.4zm-239.5 10c2.6.2 6.8.2 9.5 0 2.6-.2.4-.3-4.8-.3s-7.4.1-4.7.3z" fill="#999"/><path d="M276.7 26.5c-1.5 2-3.8 3.6-5 3.6-1.8.1-1.9.2-.4.6 1.9.5 6.1-2.7 7.8-6 1.5-2.6.7-2.1-2.4 1.8zM62.3 28.7c1.5.2 3.9.2 5.5 0 1.5-.2.2-.4-2.8-.4s-4.3.2-2.7.4zm325 4c1.5.2 3.7.2 5 0 1.2-.2 0-.4-2.8-.4-2.7 0-3.8.2-2.2.4zm384 0c1.5.2 3.9.2 5.5 0 1.5-.2.2-.4-2.8-.4s-4.3.2-2.7.4zm45 0c2 .2 5.4.2 7.5 0 2-.2.3-.4-3.8-.4s-5.8.2-3.7.4zm261.5 2c1.7.2 4.7.2 6.5 0 1.7-.2.3-.4-3.3-.4-3.6 0-5 .2-3.2.4zm-988.5 6c2 .2 5.4.2 7.5 0 2-.2.3-.4-3.8-.4s-5.8.2-3.7.4zm126.3.1c-.2.4 1.2.6 3.2.4 6.2-.6 6.9-1 2-1.1-2.6 0-4.9.3-5.2.7zm39.2.9c2.3.2 5.9.2 8 0 2-.2.1-.4-4.3-.4-4.4 0-6.1.2-3.7.4zm61.9 1c-.4.3-.7 1.1-.7 1.7 0 .7.3.7.8-.1.4-.6 2.5-1.3 4.7-1.6l4-.4-4.1-.1c-2.2-.1-4.4.1-4.7.5zm456.6 1c1.5.2 3.7.2 5 0 1.2-.2 0-.4-2.8-.4-2.7 0-3.8.2-2.2.4zm-432 7.8c0 4.4.2 6.1.4 3.7.2-2.3.2-5.9 0-8-.2-2-.4-.1-.4 4.3zm138.1-6.1c-1.3 3.3 0 5.1 3.6 5.2l3.5.1-3.4-.4c-3-.4-3.3-.7-2.9-3.4.5-3.1.1-3.8-.8-1.5zm18.4-.7c2.3.2 6.1.2 8.5 0 2.3-.2.4-.4-4.3-.4s-6.6.2-4.2.4zm75.7-.1c7 .8 17.3.8 16.8.1-.2-.4-4.8-.6-10.1-.5-5.3 0-8.3.3-6.7.4zm23.9.9c-.3.8-.4 2-.1 2.7.3.7.6.3.6-.9.1-1.7.8-2.3 3.4-2.6l3.2-.4-3.3-.1c-2.1-.1-3.5.3-3.8 1.3zm23.3-.8c5.7.4 6.2.6 6.6 2.9.4 2.1.4 2.1.3-.3-.1-2.7-.2-2.8-6.6-2.9l-6.5-.1 6.2.4zM802.4 60c0 9.1.2 12.8.3 8.2.2-4.5.2-11.9 0-16.5-.1-4.5-.3-.8-.3 8.3zm47-6.5c0 5.5.1 7.6.3 4.7.2-2.9.2-7.4 0-10-.2-2.6-.3-.2-.3 5.3zm134.5-8.9c2.4.4 3.1 1.1 3.4 3.7.4 3.1.5 3.1.3-.3-.1-3.2-.4-3.5-3.3-3.8-3.1-.2-3.2-.2-.4.4zM646.4 60.5c0 8.8.2 12.3.3 7.7.2-4.6.2-11.8 0-16-.1-4.2-.3-.5-.3 8.3zm-330-4.5c0 5.2.1 7.4.3 4.7.2-2.6.2-6.8 0-9.5-.2-2.6-.3-.4-.3 4.8zm127 1c0 5.8.1 8.1.3 5.2.2-2.8.2-7.6 0-10.5-.2-2.8-.3-.5-.3 5.3zm163.3-6.9c.8.9 1.4 6 1.6 13l.3 11.4.2-11.6c.2-10.1 0-11.8-1.5-13-1.6-1.2-1.7-1.2-.6.2zm-490.3 2.3c-.3.8-.4 2.9-.2 4.8.3 2.9.4 2.7.8-1.5.5-4.8.3-5.8-.6-3.3zm701 9.1c0 6 .1 8.4.3 5.2.2-3.2.2-8.1 0-11-.2-2.9-.3-.3-.3 5.8zm-455.1-5c0 2.7.2 3.8.4 2.2.2-1.5.2-3.7 0-5-.2-1.2-.4 0-.4 2.8zm-188-.8c1.5.2 3.7.2 5 0 1.2-.2 0-.4-2.8-.4-2.7 0-3.8.2-2.2.4zm861 2c1.5.2 3.7.2 5 0 1.2-.2 0-.4-2.8-.4-2.7 0-3.8.2-2.2.4zm-774.9 3.8c-.3.8-.4 2-.1 2.7.3.7.6.3.6-.9.1-2.1.7-2.2 7.9-2.6l7.7-.3-7.8-.2c-6-.2-7.9.1-8.3 1.3zm127.9 3c0 2.7.2 3.8.4 2.2.2-1.5.2-3.7 0-5-.2-1.2-.4 0-.4 2.8zm783 5c0 4.4.2 6.1.4 3.7.2-2.3.2-5.9 0-8-.2-2-.4-.1-.4 4.3zm-592.1.7c-.1 5-.6 7.8-1.4 8.1-1 .4-1 .6 0 .6 1.9.1 2.3-1.9 1.9-9.5l-.3-6.9-.2 7.7zM80.4 69c.1 4.3.2 4.5 3.1 4.6 2.7.2 2.8.2.3-.3-2.3-.4-2.7-1-3.1-4.6l-.4-4.2.1 4.5zM204 65.6c3.5.7 9.8.9 9.4.2-.3-.5-2.9-.7-5.7-.7-2.9.1-4.5.3-3.7.5zM325.3 71c0 3.6.2 5 .4 3.2.2-1.7.2-4.7 0-6.5-.2-1.7-.4-.3-.4 3.3zm453-1c0 3 .2 4.3.4 2.7.2-1.5.2-3.9 0-5.5-.2-1.5-.4-.2-.4 2.8zm-279 1c0 3 .2 4.3.4 2.7.2-1.5.2-3.9 0-5.5-.2-1.5-.4-.2-.4 2.8zm118 0c0 3 .2 4.3.4 2.7.2-1.5.2-3.9 0-5.5-.2-1.5-.4-.2-.4 2.8zm19 2c0 3 .2 4.3.4 2.7.2-1.5.2-3.9 0-5.5-.2-1.5-.4-.2-.4 2.8zm133.1 4c.1 1.1 1.4 1.5 4.6 1.6l4.5.1-4.2-.4c-2.3-.2-4.4-.9-4.6-1.6-.2-.7-.3-.5-.3.3zm-503.1-.3c2 .2 5.4.2 7.5 0 2-.2.3-.4-3.8-.4s-5.8.2-3.7.4zm609 3c1.5.2 3.9.2 5.5 0 1.5-.2.2-.4-2.8-.4s-4.3.2-2.7.4zm-296.5 7c2.3.2 6.1.2 8.5 0 2.3-.2.4-.4-4.3-.4s-6.6.2-4.2.4zm142.4 3c3.7.2 10 .2 14 0 4-.1 1-.3-6.7-.3s-11 .1-7.3.3zm289.6 0c1.7.2 4.7.2 6.5 0 1.7-.2.3-.4-3.3-.4-3.6 0-5 .2-3.2.4zm134 0c1.7.2 4.7.2 6.5 0 1.7-.2.3-.4-3.3-.4-3.6 0-5 .2-3.2.4zm-916 3c1.7.2 4.7.2 6.5 0 1.7-.2.3-.4-3.3-.4-3.6 0-5 .2-3.2.4zm880 4c1.8.2 4.5.2 6 0s0-.4-3.3-.4-4.5.2-2.7.4zm-663.5 1c1.5.2 3.7.2 5 0 1.2-.2 0-.4-2.8-.4-2.7 0-3.8.2-2.2.4z" fill="#CCC"/><g stroke-width="0"><path d="M12.4 25.3c5.3 9.8 5 16.4-1.1 22.5-2.3 2.3-1.4 5.7 2.3 9.3 4.3 4.1 6 6.9 4.7 7.8-.6.3-2.2 2.5-3.7 4.8-1.4 2.4-3.1 4.3-3.6 4.3-1.2 0-2.4 2.8-3.5 7.8l-.7 3.4 10.8-.2c14.7-.4 19.3.5 22.4 4.1l2.5 2.9 4.5-3c2.5-1.7 5.8-3 7.5-3 1.7 0 4-.7 5.3-1.5 5.2-3.7 17.2.5 15.9 5.6-.7 2.5.5 2.4 6.1-.6 2.6-1.4 5.6-2.5 6.7-2.5 1.1 0 3.3-.7 4.8-1.5 4.1-2.1 14.5-2.2 18.5-.1 1.7.9 3.4 1.7 3.7 1.7.9 0 7 3 10 4.9 3.9 2.4 7 2.4 12 0 2.2-1.1 4.8-1.9 5.7-2 .9 0 2-.5 2.3-1.1.4-.6 1.2-.8 1.9-.6.7.3 2.3-.1 3.7-.9 1.3-.7 4.1-1.3 6.2-1.4 3.4 0 4 .4 6.9 5.1 2.8 4.6 3.4 5 5.9 4.5 1.6-.3 4.6-1.7 6.9-3.1 2.2-1.4 4.3-2.4 4.7-2.3.8.2 5-1.5 9.6-3.8 5.7-2.8 22.9-1.1 25.1 2.5.9 1.5 13.6 3.3 18 2.6 2.3-.4 5-1.3 6.2-2 5.9-3.7 21.1-3.6 28.9.3 2.2 1.1 5.9 2.3 8.3 2.7 4.2.7 4.3.6 5.5-2.4 1.3-3.7 3.8-4.6 9.9-3.7 13.6 1.8 16.7 2.4 20 4.4 3.7 2.1 3.8 2.1 8.1.3 2.4-1.1 7.7-2.6 11.8-3.4 6.2-1.3 7.9-1.3 11.4-.2 2.2.8 5.7 1.7 7.8 2 2 .4 3.7 1 3.7 1.4 0 .4 1.6 1.5 3.6 2.4 3.9 1.9 9.9 1.5 10.7-.8.3-.6 2.4-1.5 4.7-1.9 2.2-.3 4.9-1.1 5.8-1.6 3.2-1.7 11.7-3.3 20.6-3.7l8.9-.4 9.2 4.5c9.7 4.8 11.4 5.2 14.5 3.6 1.4-.8 2.8-.5 5.5 1 5.9 3.3 12.4 2.5 22.7-3 6.4-3.5 13.7-5 23.6-5 12.1 0 18.8 1.4 22.1 4.7 1.3 1.3 3.5 2.6 4.8 2.9 1.3.4 2.8 1.4 3.3 2.4 1 1.9 9.4 2.7 10.5.9.4-.5 2.5-1.9 4.8-3.1 2.3-1.1 4.7-2.8 5.3-3.7.8-1 3.7-1.8 8.5-2.2 4.1-.4 10.3-1.3 13.9-1.9 7.3-1.3 39.6-.4 40.6 1.1.3.5 1.6.9 2.9.9 1.3 0 6.1 1 10.7 2.2 12.3 3.2 25.6 3.5 36.5.8 4.9-1.2 9.6-2.6 10.5-3.1 2.8-1.5 7.3 1.5 9.1 6l1.6 3.9 6.3-.5c3.5-.2 9.9 0 14.3.5l8 .9 2.9-3.4c1.6-1.8 3.5-3.3 4.2-3.3.6 0 3.1-.9 5.5-2 3.9-1.7 6.6-2 24.7-2 19.9 0 24.2.6 24.2 3.3 0 .7.7 2 1.4 3 1.2 1.5 3.1 1.8 13.8 1.9 7.5 0 13.3-.4 14.6-1.1 1.1-.6 3.1-1.1 4.4-1.1 1.3 0 3.5-.6 5-1.4 1.4-.8 4.6-1.7 7-2.1 2.4-.4 4.8-1.1 5.4-1.6 1.6-1.3 16.1-2.2 24.1-1.4l7.3.7.6 5 .7 5.1 12.6-.7c18.8-1.1 30.3-2.4 31.1-3.6.4-.6 2.4-1.3 4.6-1.6 2.1-.3 4.8-1 5.9-1.4 6.2-2.8 37.6-4.3 39-2 .3.5 1.5 1 2.7 1 1.1 0 3.6.7 5.6 1.6 2.1.9 4.6 2 5.7 2.4 6.6 2.7 18.7 1.5 27.5-2.8 5.4-2.7 5.7-2.7 23.5-2.4 19.5.3 21.8.9 19.6 5.1-1.1 2-1 2.1 5.6 2.1 6.8 0 13.7-1.5 20.3-4.3 5.8-2.4 34.9-3.9 37.4-1.8.6.5 3 1.2 5.3 1.6 2.3.3 4.7 1.3 5.4 2.1.7.9 3.2 1.4 7.2 1.4 3.3 0 8.9.5 12.4 1.1 5.9 1 6.6 1 8.6-.9 5.1-4.6 11.4-6.4 23.2-6.6 9.4-.1 11.8.2 15.6 2 2.4 1.2 5.8 2.8 7.4 3.5 1.7.7 3.4 1.5 3.9 1.8 1.6.7-.3-10.7-2.4-14.2-2.2-3.7-3.7-14.7-2.7-18.9.4-1.4 1.8-3.6 3.2-5.1 2.6-2.6 4.2-8.4 2.8-10.2-.4-.6-2.7-2.3-5-3.8-2.4-1.5-4.3-3.4-4.3-4.1 0-.8.9-3.5 2-6.1 2.1-4.9 2.7-11.5 1-11.5-.5 0-3.1 1.3-5.7 3-2.6 1.6-5.4 3-6.3 3-.9 0-2 .4-2.6 1-3.8 3.8-28.7 8.5-32.5 6.2-1-.7-2.5-1.2-3.2-1.2-.7 0-3.5-1.5-6.3-3.3-6-4-12.5-6.7-15.9-6.7-2.2 0-2.4.3-1.9 2.9.5 2.3.1 3.5-1.9 5.5-3.1 3.1-8.4 3.9-23 3.5-10.8-.4-11.6-.6-18.5-4.2-7.3-3.8-10.2-4.5-10.2-2.6 0 .6-.8.8-1.8.5-1.1-.4-4.4.7-7.8 2.4-5.5 2.7-7.1 3-20.1 3.6-15.6.8-19.4-.1-22.7-5.1-1.2-1.9-2.5-2.5-5.1-2.5-1.9 0-3.5.4-3.5.9 0 2.1-15 5.9-24.6 6.2-9.5.3-11.1-.4-13.7-5.9-1.8-3.8-2.7-4.7-4.7-4.6-5.3.3-19.7 3.7-23.9 5.6-2.5 1.1-6.6 2.1-9.3 2.3-2.6.1-5.5.8-6.3 1.5-1.1.9-4.2 1.1-11.1.8-10.7-.6-13.5-1.9-11.5-5.6.6-1.1 1.1-2.5 1.1-3.1 0-1.3-6.2-1.5-7.6-.2-.5.5-5.8 1.4-11.9 2.1-17.2 1.8-22.6 2.7-28.5 4.4-5.4 1.5-23 2.3-24.3 1-.3-.4.5-2.2 2-4 2.3-3.1 2.4-3.4.8-4-1-.4-2.6-.2-3.6.4-1 .7-2.5.9-3.4.6-.8-.3-1.5-.1-1.5.4 0 .6-1.6 1.4-3.5 1.8-1.9.3-5.2 1.5-7.2 2.5-6.8 3.5-31.6 2-36.8-2.2-.6-.4-5.2-.9-10.3-1-7.1-.2-9.5.1-10.9 1.3-5.3 4.7-37.8 7.4-42.1 3.5-1-.9-2.3-1.7-2.9-1.7-.5 0-3-1.3-5.4-3-4-2.7-5.1-3-13-3-5.6 0-9.2-.5-10.4-1.4-1.7-1.2-2.4-.8-6.9 4-7.1 7.3-9.8 8.3-21.9 7.3-5.4-.4-10.4-1.2-11-1.7-1.6-1.2-10.3-4.3-11.3-4.1-.5.1-1.6 0-2.4-.4-.8-.3-4.3-1.5-7.7-2.7l-6.1-2.1-3.9 2.5c-2.1 1.4-4.5 3.2-5.3 4-2.9 2.7-7.4 3.7-17.5 3.7-10.7 0-15.6-1.3-18.7-5-2.4-2.8-4.6-2.6-7 .4-1.4 1.8-2.9 2.5-5.3 2.5-4 0-11.7-3.9-15.2-7.6-1.4-1.5-2.8-2.3-3.1-1.8-1.2 1.8-12.3 5.4-16.4 5.4-2.1 0-4.8-.5-6-1.1-1.1-.6-5.2-1.1-9-1.1-5.6 0-7.7.5-9.9 2.1-1.5 1.2-3.1 2.1-3.5 2.1-.4 0-1.5.7-2.5 1.6-1 .9-4.3 1.8-7.6 2.1-4.9.4-6.6.1-10.8-2.1-2.7-1.4-6.8-4.4-9-6.6-3.2-3.4-4.5-4-6.5-3.5-5.8 1.4-13 1.7-16.4.5-3.6-1.2-3.6-1.1-10.1 4.8-3.8 3.5-7.8 6.2-9.6 6.6-7.3 1.4-15.6.3-23.9-3.1-8.2-3.4-29.3-5-31-2.4-.4.8-1.2 1.1-1.7.8-.5-.3-3.1.5-5.8 1.8-2.7 1.4-6.5 2.5-8.6 2.5-5.3 0-13.7-1.9-17.4-4-1.7-1-4.7-2.1-6.6-2.5-1.8-.4-4.3-1.3-5.4-2-6.1-3.9-15.5-4.3-15.5-.7 0 2.5-5 7-9.1 8.2-2.3.7-5 .7-8.4-.1-4.9-1-6.5-1.7-15.4-6.6-4.3-2.3-4.6-2.3-8-.7-2.8 1.4-5.2 1.5-12.5 1-5-.4-10.9-1.1-13.1-1.6-3.7-.8-4.4-.6-9 2.5-9 6.1-19.9 7.2-29.2 2.9-3-1.3-6-2.4-6.9-2.4-.8 0-3.3-1.4-5.4-3.1l-3.9-3.1-4.5 2.1c-2.4 1.2-4.6 2.7-4.8 3.2-.2.6-4.6 1.3-9.8 1.6-10 .5-16.4-1-17.7-4.2-.8-2.3-7.6-1.9-9.8.5-1 1.1-2.8 2-4.1 2-1.2 0-2.5.6-2.8 1.2-.5 1-.7 1-1.2 0-.3-.6-1.6-1.2-2.9-1.2-1.2 0-2.9-.7-3.6-1.6-2.7-3.3-5.8-3.6-11.3-1-10.1 4.7-17.5 6.4-25.6 6-4.1-.3-9.1-.9-11-1.4-1.9-.5-6.6-1.6-10.5-2.6-3.8-.9-7.7-2.2-8.5-2.9-1.6-1.4-5.9-2.2-15.9-3.1l-6.3-.6 3.6 6.5zM141 38.7c1.4.4 4.2 1.7 6.2 3.1 4.5 3 5.8 6.7 5.8 17.1 0 5.8-.5 8.1-2.2 11-1.2 2-2.6 3.9-3.1 4.2-.5.4-.6 1.2-.3 1.8.9 1.4-.7 1.4-2 .1-.8-.8-1.9-.8-3.8 0-3.2 1.2-12.9 1.4-14 .2-.4-.4-2.4-1.2-4.4-1.7-2.7-.8-4.1-2-5.3-4.5-1-1.9-1.5-3.8-1.3-4.1.2-.3-.1-2.2-.7-4.2-1-3.6-.1-10.2 2.3-16 1.2-3 7.2-6.7 11-6.7 1.3 0 3-.5 3.8-1 .8-.6 2.4-.8 3.5-.4 1.1.3 3.1.8 4.5 1.1zm-39.7 1.1 9.8.2-.3 3.7-.3 3.8H101c-5.2 0-9.6.3-9.7.7-.2.5-.3 1.8-.3 2.9 0 2.1.3 2.2 7.1 1.6 5-.4 7.1-.3 7.4.6.2.7.6 2.4.9 3.9l.6 2.8H90l.5 7 .5 7.1-5.6-.3-5.6-.3.1-16c.1-8.7.6-16.4 1.1-17 .8-1 2.3-1.1 20.3-.7zm86.8 1.5c6.5 3.5 6.9 4 6.9 8.8 0 3.6-.6 5.2-2.8 7.7-1.6 1.8-3.4 3.2-4 3.2-1.7 0-1.5 2.1.2 3.4 2.1 1.6 6.8 10.9 5.9 11.6-.5.4-3.2.4-6.2.1l-5.4-.6-4-7.8c-2.7-5.4-4.5-7.7-5.8-7.7-1.6 0-1.9 1-2.1 7.7l-.3 7.8-5.1.3c-3.5.2-5.3-.1-5.6-1-.3-.7-.3-8.8 0-18.1l.5-16.7H173c8.5 0 13.6.4 15.1 1.3zm43.9 1.4c5.1 2.6 7.6 5.5 6.5 7.3-.3.6-3.1 1-6.1 1-4.1 0-5.4-.4-5.4-1.5 0-3.4-6.7-4.6-9.4-1.6-2 2.2-.8 3.5 3.9 4.7 1.7.4 3.5 1 4 1.4.6.4 2.9 1 5.3 1.3 3.2.4 5 1.4 7.2 3.9 4.2 4.6 4 9.1-.4 14.3l-3.4 4-10.7-.1c-13.3-.2-17.3-1.8-20.4-8.1-1.2-2.6-1.6-4.5-1.1-4.8.6-.4 3.5-.3 6.5 0 4.1.6 5.6 1.2 6 2.6.6 1.8 1.6 2.3 4.2 2 .6-.1 1.4.3 1.8.9.9 1.4 4.8 1.2 6.9-.3 4.2-3.1-1.2-8-10-9-2.2-.3-5.9-1.6-8.2-3.1-3.9-2.4-4.2-2.9-4.2-7 0-7.1 5-10.5 15.7-10.6 4.7 0 7.3.6 11.3 2.7zm37.1-1.7H281v7h-7.7c-11.5 0-13.8 1-11.4 4.9.6.9 2.8 1.3 6.7 1.3 6.8 0 8.4.9 8.4 4.9V62h-16.1l.3 3.7.3 3.8h22v8h-5.2c-2.9-.1-10.5-.2-16.8-.3l-11.6-.2.2-17.8c.1-9.7.4-18.1.7-18.6.2-.4 1.8-.5 3.4-.2 1.7.3 8.4.6 14.9.6zm60.3 1.6c.9.8 1.6 2 1.6 2.6 0 .5 1.4 2.7 3 4.8 1.7 2.1 3 4.5 3 5.3 0 .8.7 2 1.5 2.7 1.3 1.1 1.5.2 1.5-7.4V42h5.5c4.5 0 5.5.3 5.6 1.7 0 1-.1 5.8-.2 10.8-.1 4.9-.3 12.1-.3 16l-.1 6.9-4.5.8c-4.1.8-4.7.6-6.8-1.9-1.3-1.6-2.8-3.7-3.3-4.8-1.7-3.6-3.5-6.4-5.1-8.2-.9-1-1.9-3.3-2.3-5.1-1.3-6.1-2-3.2-1.8 7.5.1 5.9-.2 11.2-.8 11.9-.5.6-3.1 1.1-5.7 1l-4.7-.1.2-18c.2-9.9.3-18.3.3-18.8 0-1.5 11.8-.8 13.4.9zm61.9.5c2.6.7 4.4 2 5.5 4 .9 1.6 2 2.9 2.3 2.9.6 0 .1 17-.6 20.7-.3 1.2-2.3 3.6-4.6 5.4-3.6 2.8-5 3.3-11.5 3.7-10.6.7-16.3-2.3-20-10.7-2.5-5.5-1-16.9 2.8-22.1 1.6-2.2 4-4.2 5.1-4.5 7-1.5 13.8-1.3 21 .6zm318.8 1.6c2.5 1.3 5.1 3.5 5.7 4.9 1.3 2.8 1.2 2.8-5.1 3.9-3.1.5-4.1.2-6.1-2-1.3-1.4-3.4-2.5-4.7-2.5-2.3.1-5.9 2.1-5.9 3.3 0 1.2 6.5 3.7 9.5 3.7 7 0 14 4.8 15 10.4.4 2.1 1.3 3.6 2.1 3.6s1.4.4 1.4 1c0 .5-.6.7-1.3.4-.8-.3-2.4 1-3.8 3.1-1.6 2.4-3.6 3.9-6.4 4.7-5.4 1.5-15.8 1.1-22.1-.8-4.4-1.4-5.4-2.2-6.9-5.5-2.6-5.7-1.7-6.9 5.5-6.9 5.1 0 6 .3 6 1.8 0 2.9 2.1 4.2 6.6 4.2 5.5 0 7.4-.8 7.4-3.1 0-2.2-4.2-4.2-12.5-5.9-13.5-2.8-16.9-13.9-5.6-18.8 8.3-3.5 13.7-3.4 21.2.5zM882.5 42c.3.5 2 1 3.6 1s4.7.9 6.8 1.9c3.4 1.8 3.9 2.5 5.1 7.9 1.2 6 1.1 9.6-.8 18.1-1.4 6.4-6.5 8.9-18.1 9-10.7.1-14.7-2.8-17.6-12.8-1-3.5-.7-11.4.5-14.2 3.3-7.6 4.8-8.8 14-10.9 5-1.1 5.8-1.1 6.5 0zm72.9.6c4.3.6 9.3 4.9 10.1 8.5.9 4-.4 5.2-5.7 5.6-4.2.4-4.4.3-6-3.7-1.5-3.3-2.3-4-4.5-4-5.3.1-6.8 2.3-7.1 10.9-.5 9.5.5 11.8 5.5 12.7 3.1.6 3.9.3 5.5-1.6 1-1.2 1.8-3.1 1.8-4.1 0-1.5.7-1.9 3.8-1.9 8.6 0 9.8 1.8 6.1 9-1.2 2.2-2.2 4-2.3 4-5.4 1.5-15.2 2.3-19.1 1.7-6.8-1.1-9.5-2.6-12.3-6.7-2-3-2.3-4.5-2.1-12 .2-12.8 1.9-15.5 12.4-19.1 1.9-.6 7.4-.4 13.9.7zm-531.6 1.7c.6.5 1.2 1.4 1.2 1.9s1.3 2.6 2.9 4.6c1.6 2 3.3 5 3.9 6.7.9 2.7 1.1 2.4 1.3-3.5.1-3.6.2-7.6.3-9 .1-2.3.5-2.5 4.7-2.6 4.8-.1 8.6 1.7 7.4 3.5-.3.6-.6 8.1-.6 16.5.1 17.2.4 16.7-7.1 16.4-3.4-.1-4.1-.6-7-5.2-1.7-2.8-4.4-7.1-6-9.5-1.5-2.5-2.8-5.3-2.8-6.3s-.4-1.8-1-1.8-1 4.3-1 11v11h-11V60.7c0-9.6.3-17.7.6-18 .9-.9 12.7.4 14.2 1.6zm166.8-.8c.7.2 1.1 1.8 1 3.7-.2 3.3-.2 3.3-5.9 3.6-4.1.2-5.7.7-5.7 1.7 0 .8.5 1.7 1 2 .7.4.8 1.1.1 1.8-.5.7-.8 6.1-.8 12.2l.2 11-4.2-.2c-2.4 0-5-.1-5.9-.2-1.3-.1-1.5-2-1.2-14l.3-14-5 .2c-5 .2-5 .2-5.3-3.1-.6-5.8-.7-5.7 15.4-5.4 8.2.1 15.4.4 16 .7zm212.2-.6c1 .6 1.3 4.8 1.3 17.7-.1 9.2-.5 17.2-1 17.7-.4.4-3 .7-5.7.5-4-.2-5.1-.7-5.9-2.6-.5-1.2-1.3-2.2-1.7-2.2-.4 0-1.5-1.7-2.4-3.8-1-2-2.8-5.1-4.1-6.8-1.3-1.7-2.3-3.8-2.3-4.7 0-1-.5-1.7-1-1.7-.7 0-.8 3.8-.4 11l.7 11H769l-.1-9.8c-.1-5.3-.3-13.4-.4-18l-.4-8.3 7.6.3c6.5.3 7.7.6 7.9 2.1.1 1 .9 2.6 1.7 3.5.7 1 2.6 3.8 4.1 6.4 1.5 2.7 3 4.8 3.3 4.8.3 0 .3-3.6 0-8-.5-6.9-.4-8.1 1.1-8.9 2.1-1.3 7.2-1.4 9-.2zm-297.9 1c7.3.6 7.4.7 7.6 3.4.1 2.9-.4 3.2-7.5 4.2l-4.5.6.3 13 .4 12.9H489V51.2l-3.8.5c-2.8.4-4.3 0-5.5-1.2-1.7-1.6-2.3-5.6-1-6.8.8-.8 15.7-.7 26.2.2zM529.6 56c.1 11 .5 13.4 1.9 15 4.8 5.3 9.8 0 9.5-9.9-.1-3.1-.2-8.4-.1-11.9l.1-6.3 6.3.3c6.9.3 6.9.2 5.6 8.8-.4 2.5-.3 5.5.2 6.7.5 1.4.5 2.3-.1 2.3s-1 2.6-1 5.7c-.1 8-2.5 10.9-11 12.9-4.7 1.1-7.1 1.2-9.3.4-1.7-.5-4.2-1-5.7-1-2 0-3.6-1-5.6-3.8-2.8-3.6-2.9-4-3-16.2 0-6.9.1-13.2.3-14 .3-1.2 2-1.6 6.1-1.8l5.7-.2.1 13zm94.2-12.4c4.9.6 5.2.8 5.2 3.5s-.2 2.8-5.2 3.1l-5.3.3.3 12.9c.1 7.1 0 13.8-.4 14.8-.4 1.4-1.5 1.8-4.9 1.8-2.4 0-4.7-.6-5.2-1.3-.4-.6-.8-6.8-.9-13.7 0-6.9-.1-13-.2-13.7-.1-.7-1.6-.9-4.2-.6-2.5.4-4.6.1-5.5-.7-1.5-1.3-2-5.1-.8-6.3.8-.9 20.1-.9 27.1-.1zM748.4 45c.8.6 1.9 3.2 2.6 5.8.7 2.6 1.9 5.8 2.5 7.2 4.3 8.6 8.5 20.4 7.7 21.2-.5.5-3.1.8-5.8.6-4.2-.3-5.1-.7-6.2-3.1-1.3-2.7-1.6-2.8-7.5-2.5-5.6.3-6.2.5-6.5 2.5-.2 1.3-.6 2.4-1 2.4-4.1.7-7.1.8-9 .4-1.9-.5-2.1-1-1.5-3.3.3-1.5 1.7-4.6 3-6.9 1.3-2.3 2.5-5.5 2.6-7 .2-1.5 1.3-5 2.5-7.7s2.2-5.5 2.2-6.3c0-.8.5-2.4 1.1-3.5 1-1.8 1.8-2 6.6-1.5 3 .3 6 1.1 6.7 1.7zm82.5.9c1.4 1.6 4 5.6 5.6 9 1.7 3.3 3.3 6 3.6 6.1.3 0 .4-1.9.2-4.3-.2-2.3-.4-6.2-.5-8.7l-.1-4.5h10.5V61l.1 17.5h-5.4c-5.2 0-5.4-.1-7.6-4-1.3-2.2-3-5.5-3.8-7.3-.8-1.7-2-3.2-2.5-3.2-.6 0-1-.6-1-1.3 0-.7-.7-2.2-1.5-3.3-1.3-1.7-1.4-.8-.8 8.9l.6 10.8-5.9-.3-5.9-.3-.1-17.8-.1-17.7h6c5.4 0 6.3.3 8.6 2.9zm156.7-2.1c.7.4 1.1 3.1 1 6.6l-.1 5.8 5.5.1h5.5l.2-5.4c.4-7.8.6-8.1 6-7.7l4.8.3.5 13.5c.3 7.4.4 15.4.2 17.8l-.3 4.3-5.7-.3-5.7-.3.3-7.3.4-7.2h-12.5l.5 7.5.5 7.5h-5.9c-3.9 0-5.8-.4-5.9-1.3-.2-5.1.3-33.3.7-33.9.6-1 8.5-1 10 0zm58.2.1 7.2.1v6h-20.1l.3 3.2.3 3.3 6.5.2c3.6 0 7.1.1 7.8.2.9.1 1.2 1.2 1 3.3l-.3 3.3-7.3.1c-7.9.1-9.5.9-9 4.5.3 2.4.5 2.4 11.3 2.4h11v8l-9.5.1c-5.2.1-11.8.5-14.7.8-8.7 1-8.3 1.8-8.3-18.5V43l8.3.4c4.5.2 11.5.4 15.5.5zm-398 17.9.3 17.3-6.3-.3c-5.8-.3-6.3-.5-6.2-2.6 0-1.2.1-9 .2-17.2l.2-15.1 5.7.3 5.7.3.4 17.3zm427.7 9.9c.2 1.6.6 3.8 1 5 .7 2.2.5 2.3-4.8 2.3-3.1 0-5.8-.3-6-.8-.2-.4-.2-2.4 0-4.5.5-3.4.8-3.7 3.9-3.7 1.8 0 3.6-.5 3.9-1.1 1-1.5 1.8-.4 2 2.8zm16.6 3c.6 4.9 0 5.4-6 4.6-4-.5-4.1-.7-4.1-4.3 0-4.7.5-5.2 5.5-4.8 3.9.3 4 .4 4.6 4.5zm15.7-.3c.4 4.5-.7 5.6-5.9 5.6-4.1 0-5.3-2-4.2-7.2.5-2.8.8-2.9 5.2-2.6 4.6.3 4.6.3 4.9 4.2z"/><path d="M129.6 48.2c-1.1 1.6-1.6 4.6-1.6 10 0 6.8.3 7.9 2.2 9.2 2.8 2 7.2 2.1 8.7.2.7-.8 1.5-4.5 1.8-8.3.7-9.2-1.1-13.3-6.2-13.3-2.4 0-3.9.7-4.9 2.2zm41.4 2.3V54h5.3c5.1 0 7.7-1.2 7.7-3.5 0-1.7-4.6-3.5-9-3.5-3.9 0-4 .1-4 3.5zm204.9.3c-2 1.7-2.2 2.8-2.2 9.5 0 6.8.2 7.8 2.4 9.6 2.7 2.3 4.6 2.5 8.3 1.1 2.5-.9 2.6-1.2 2.6-10.5s-.1-9.6-2.6-10.5c-3.7-1.5-5.9-1.2-8.5.8zm500.5.4c-3.5 1.7-4.6 11.1-2 17.3 1.4 3.2 1.9 3.5 5.6 3.5 3.5 0 4.2-.4 5.1-2.8.9-2.3.6-16.9-.3-17.7-1.1-1-6.7-1.2-8.4-.3zM740.7 61.3c-2.3 4.7-2.1 5.7.8 5.7 2.1 0 2.5-.5 2.4-2.8 0-1.5-.4-3.6-.8-4.6-.6-1.6-1-1.4-2.4 1.7z"/></g><path d="M804.9 33.3c.4.4 3.7.7 7.2.5l6.4-.3-7.2-.5c-4-.3-6.8-.1-6.4.3zm-99.6 1.4c1.5.2 3.7.2 5 0 1.2-.2 0-.4-2.8-.4-2.7 0-3.8.2-2.2.4zm-385 7c1.5.2 3.9.2 5.5 0 1.5-.2.2-.4-2.8-.4s-4.3.2-2.7.4zm89 6.3c0 3 .2 4.3.4 2.7.2-1.5.2-3.9 0-5.5-.2-1.5-.4-.2-.4 2.8zm187-3.5c-.3.9-.3 1.9.1 2.2.3.4.6-.1.6-1 0-1.1 1.1-1.7 3.8-2l3.7-.4-3.8-.1c-2.6-.1-3.9.3-4.4 1.3zm16.5-.8c1.7.2 4.7.2 6.5 0 1.7-.2.3-.4-3.3-.4-3.6 0-5 .2-3.2.4zm122.8.1c-.2.4 1.2.6 3.2.4 5.6-.5 6.2-1 1.5-1.1-2.3-.1-4.4.3-4.7.7zm244.7-.1c1.5.2 3.7.2 5 0 1.2-.2 0-.4-2.8-.4-2.7 0-3.8.2-2.2.4zM433.3 54c0 3.6.2 5 .4 3.2.2-1.7.2-4.7 0-6.5-.2-1.7-.4-.3-.4 3.3zm-83 4.5c0 3.3.2 4.5.4 2.7.2-1.8.2-4.5 0-6s-.4 0-.4 3.3zm167 2.5c0 4.7.2 6.6.4 4.2.2-2.3.2-6.1 0-8.5-.2-2.3-.4-.4-.4 4.3zm-130-.5c0 3.3.2 4.5.4 2.7.2-1.8.2-4.5 0-6s-.4 0-.4 3.3zm57.1 6c0 6.6.1 9.2.3 5.7.2-3.4.2-8.8 0-12-.2-3.1-.3-.3-.3 6.3zm484.9-6c0 2.7.2 3.8.4 2.2.2-1.5.2-3.7 0-5-.2-1.2-.4 0-.4 2.8zM647.4 68c0 6.3.1 8.9.3 5.7.2-3.1.2-8.3 0-11.5-.2-3.1-.3-.5-.3 5.8zm-321.1-2.5c0 2.7.2 3.8.4 2.2.2-1.5.2-3.7 0-5-.2-1.2-.4 0-.4 2.8zm174 1c0 2.7.2 3.8.4 2.2.2-1.5.2-3.7 0-5-.2-1.2-.4 0-.4 2.8zm118 5c0 3.8.2 5.3.4 3.2.2-2 .2-5.2 0-7-.2-1.7-.4-.1-.4 3.8zm-11-1c0 2.7.2 3.8.4 2.2.2-1.5.2-3.7 0-5-.2-1.2-.4 0-.4 2.8zm209 2.5c0 3 .2 4.3.4 2.7.2-1.5.2-3.9 0-5.5-.2-1.5-.4-.2-.4 2.8zm11 .5c0 3.3.2 4.5.4 2.7.2-1.8.2-4.5 0-6s-.4 0-.4 3.3zm-549.7-3.8 5.6.4-.4 3.9c-.2 2.2 0 3.6.5 3.1s.7-2.4.5-4.2l-.3-3.4-5.8-.1-5.7-.1 5.6.4zm772.4 1c1.9.3 3.9 1 4.3 1.6.6.8.7.7.4-.3-.2-1-1.7-1.5-4.3-1.6-3.7-.1-3.8-.1-.4.3zm-9.7 8c1.5.2 3.9.2 5.5 0 1.5-.2.2-.4-2.8-.4s-4.3.2-2.7.4zm-466 7c1.5.2 3.9.2 5.5 0 1.5-.2.2-.4-2.8-.4s-4.3.2-2.7.4zm152 3c1.5.2 3.7.2 5 0 1.2-.2 0-.4-2.8-.4-2.7 0-3.8.2-2.2.4zm25 0c1.5.2 3.7.2 5 0 1.2-.2 0-.4-2.8-.4-2.7 0-3.8.2-2.2.4zm353.5 7c1.8.2 4.5.2 6 0s0-.4-3.3-.4-4.5.2-2.7.4zm-427.5 2c2 .2 5.4.2 7.5 0 2-.2.3-.4-3.8-.4s-5.8.2-3.7.4z" fill="#333"/><path d="m111.9 23.7-2.4 2.8 2.5-2.2c1.4-1.2 3.9-2.3 5.5-2.6l3-.4-3.1-.2c-2.2-.1-3.7.7-5.5 2.6zm116.4 2c1.5.2 3.7.2 5 0 1.2-.2 0-.4-2.8-.4-2.7 0-3.8.2-2.2.4zm397 9c1.5.2 3.7.2 5 0 1.2-.2 0-.4-2.8-.4-2.7 0-3.8.2-2.2.4zm374 1c1.5.2 3.9.2 5.5 0 1.5-.2.2-.4-2.8-.4s-4.3.2-2.7.4zM160.3 47c0 4.1.2 5.8.4 3.7.2-2 .2-5.4 0-7.5-.2-2-.4-.3-.4 3.8zM342 42.6c3.7.8 8.8.9 8.4.2-.3-.4-2.6-.7-5.2-.7-2.6.1-4 .3-3.2.5zm140.8 1.1c1.8.2 4.5.2 6 0s0-.4-3.3-.4-4.5.2-2.7.4zm86.5 0c2.6.2 6.7.2 9 0s.2-.3-4.8-.3c-4.9 0-6.8.1-4.2.3zm250.5 0c1.8.2 4.5.2 6 0s0-.4-3.3-.4-4.5.2-2.7.4zM80.3 49c0 3 .2 4.3.4 2.7.2-1.5.2-3.9 0-5.5-.2-1.5-.4-.2-.4 2.8zm461 1c0 3 .2 4.3.4 2.7.2-1.5.2-3.9 0-5.5-.2-1.5-.4-.2-.4 2.8zm-13 1.5c0 3.3.2 4.5.4 2.7.2-1.8.2-4.5 0-6s-.4 0-.4 3.3zm274.7 2c0 3.2.3 5.6.6 5.2.3-.3.6-2.6.6-5.2s-.3-4.9-.6-5.3c-.3-.3-.6 2.1-.6 5.3zm-463 .7c-.3 3.1-.1 5.3.3 4.9.5-.5.7-3 .5-5.7l-.3-4.9-.5 5.7zm670.4 8.8c0 7.4.1 10.5.3 6.7.2-3.7.2-9.7 0-13.5-.2-3.7-.3-.6-.3 6.8zm-837.1-8.3c1.5.2 3.9.2 5.5 0 1.5-.2.2-.4-2.8-.4s-4.3.2-2.7.4zm396 3.8c0 2.7.2 3.8.4 2.2.2-1.5.2-3.7 0-5-.2-1.2-.4 0-.4 2.8zm-303.6 3.2c1.8.2 5 .2 7 0 2.1-.2.7-.4-3.2-.4-3.8 0-5.5.2-3.8.4zm-95.4 6.8c0 3.3.2 4.5.4 2.7.2-1.8.2-4.5 0-6s-.4 0-.4 3.3zm1000 0c0 2.7.2 3.8.4 2.2.2-1.5.2-3.7 0-5-.2-1.2-.4 0-.4 2.8zm-855 2.5c0 3 .2 4.3.4 2.7.2-1.5.2-3.9 0-5.5-.2-1.5-.4-.2-.4 2.8zm487.9 2.7c-.2 3-.7 4.3-1.9 4.6-1.7.4-1.7.5 0 .6 2.2.1 3-1.7 2.4-6.1-.3-3-.4-3-.5.9zm263.4-2.9c-.2.4 1.2.6 3.2.4 5.6-.5 6.2-1 1.5-1.1-2.3-.1-4.4.3-4.7.7zm-326.3 2.9c1.5.2 3.9.2 5.5 0 1.5-.2.2-.4-2.8-.4s-4.3.2-2.7.4zm240 5c1.5.2 3.9.2 5.5 0 1.5-.2.2-.4-2.8-.4s-4.3.2-2.7.4zm-965 7c1.5.2 3.7.2 5 0 1.2-.2 0-.4-2.8-.4-2.7 0-3.8.2-2.2.4zm470 1c1.5.2 3.7.2 5 0 1.2-.2 0-.4-2.8-.4-2.7 0-3.8.2-2.2.4zm255.5 2c1.8.2 4.5.2 6 0s0-.4-3.3-.4-4.5.2-2.7.4zm187.5 0c1.5.2 3.9.2 5.5 0 1.5-.2.2-.4-2.8-.4s-4.3.2-2.7.4zm-159.6 8c1.8.2 5 .2 7 0 2.1-.2.7-.4-3.2-.4-3.8 0-5.5.2-3.8.4z" fill="#666"/></svg>